<svg version="1.1" id="Layer_1" xmlns="http://www.w3.org/2000/svg" xmlns:xlink="http://www.w3.org/1999/xlink" x="0px" y="0px"
	 width="100%" viewBox="0 0 128 128" enable-background="new 0 0 128 128" xml:space="preserve">
<path fill="#010201" opacity="1.000000" stroke="none" 
	d="
M72.000000,129.000000 
	C48.000000,129.000000 24.500000,129.000000 1.000000,129.000000 
	C1.000000,86.333336 1.000000,43.666668 1.000000,1.000000 
	C43.666668,1.000000 86.333336,1.000000 129.000000,1.000000 
	C129.000000,43.666668 129.000000,86.333336 129.000000,129.000000 
	C110.166664,129.000000 91.333336,129.000000 72.000000,129.000000 
M52.985214,86.664528 
	C69.079140,77.189850 75.192444,60.009586 68.180283,43.961727 
	C61.370747,28.377604 44.151443,20.522514 27.995808,25.630396 
	C9.922587,31.344553 0.357519,50.658768 6.804916,68.419983 
	C13.531518,86.950348 33.376030,95.043449 52.985214,86.664528 
M81.777245,76.626587 
	C81.203697,75.811577 80.590942,75.021088 80.063271,74.177383 
	C77.596672,70.233429 73.423813,69.679146 71.258301,73.563545 
	C67.503525,80.298706 62.469921,85.525566 56.089355,89.747917 
	C54.982670,90.480270 54.651352,92.964653 54.660057,94.636154 
	C54.668472,96.252213 55.955627,97.845673 56.033146,99.479790 
	C56.765945,114.927132 69.654594,126.453568 84.605904,124.894432 
	C99.480179,123.343315 109.639877,109.900558 107.416504,94.760353 
	C107.252373,93.642700 106.922676,92.219337 107.421349,91.389809 
	C109.989471,87.117836 107.672020,86.763199 104.184906,86.896080 
	C95.311546,87.234207 87.975525,83.971390 81.777245,76.626587 
M121.426598,72.792419 
	C128.881012,59.391930 124.755493,46.553173 110.798576,39.659542 
	C109.920738,39.225956 108.770203,38.833752 108.343346,38.082973 
	C106.045929,34.042179 104.481331,35.951839 102.701805,38.520496 
	C99.154160,43.641354 94.363503,47.086315 88.225624,48.374237 
	C85.649406,48.914806 82.145546,48.133560 80.616600,49.587055 
	C79.389847,50.753273 80.781815,54.411793 80.536247,56.917725 
	C79.450012,68.002251 84.445755,77.117905 94.014534,81.144386 
	C103.804077,85.263748 113.549522,82.469673 121.426598,72.792419 
M70.257286,9.686552 
	C68.108459,12.974281 65.938210,16.248318 63.823032,19.557560 
	C63.132084,20.638559 62.866501,22.347471 61.920383,22.844969 
	C58.610989,24.585161 59.948151,26.552107 61.338501,28.522642 
	C65.137840,33.907440 68.975632,39.266361 72.894180,44.564545 
	C73.529121,45.423038 74.720718,46.558365 75.542099,46.473457 
	C79.487656,46.065582 83.432877,45.456036 87.307022,44.596992 
	C95.408035,42.800697 101.505569,36.406479 102.677780,28.115828 
	C103.824944,20.002283 100.942192,13.245185 94.124687,8.671495 
	C86.371666,3.470196 78.467606,3.953251 70.257286,9.686552 
z"/>
<path fill="#F6D069" opacity="1.000000" stroke="none" 
	d="
M52.639160,86.817886 
	C33.376030,95.043449 13.531518,86.950348 6.804916,68.419983 
	C0.357519,50.658768 9.922587,31.344553 27.995808,25.630396 
	C44.151443,20.522514 61.370747,28.377604 68.180283,43.961727 
	C75.192444,60.009586 69.079140,77.189850 52.639160,86.817886 
M26.096222,64.446159 
	C26.096237,74.847519 26.096237,74.847519 31.746187,75.986664 
	C32.643990,77.687111 33.440655,79.195992 34.237320,80.704880 
	C35.102501,79.371384 35.892128,77.978783 36.867714,76.731644 
	C37.295300,76.185036 38.214954,75.515526 38.711185,75.648445 
	C39.471920,75.852211 40.190769,76.606636 40.690735,77.298393 
	C41.464226,78.368607 42.038101,79.583092 42.696621,80.736397 
	C43.409332,79.435867 44.082180,78.111198 44.849682,76.843857 
	C45.311882,76.080643 45.787930,75.220032 46.485249,74.721230 
	C53.983223,69.357903 54.716217,64.831436 49.228352,57.265755 
	C54.031586,50.262123 53.594280,44.714493 48.229839,40.673599 
	C46.748569,39.557800 45.910686,37.601662 44.728542,36.068928 
	C44.171135,35.346199 43.497753,34.712910 42.876923,34.039097 
	C42.181530,34.772427 41.321049,35.413879 40.844982,36.269276 
	C40.488667,36.909504 40.627731,37.825436 40.546223,38.618607 
	C40.098400,38.888031 39.650581,39.157455 39.202759,39.426880 
	C38.337032,38.320274 37.484165,37.203270 36.600998,36.110764 
	C36.024204,35.397259 35.403446,34.719299 34.802383,34.025414 
	C34.089138,34.749725 33.205463,35.375664 32.713623,36.227772 
	C32.277302,36.983681 32.276203,37.990807 32.038578,39.093002 
	C26.631889,37.928833 25.841543,40.695457 26.027735,44.968204 
	C26.295877,51.121544 26.096230,57.295269 26.096222,64.446159 
z"/>
<path fill="#7AC5ED" opacity="1.000000" stroke="none" 
	d="
M81.984741,76.927368 
	C87.975525,83.971390 95.311546,87.234207 104.184906,86.896080 
	C107.672020,86.763199 109.989471,87.117836 107.421349,91.389809 
	C106.922676,92.219337 107.252373,93.642700 107.416504,94.760353 
	C109.639877,109.900558 99.480179,123.343315 84.605904,124.894432 
	C69.654594,126.453568 56.765945,114.927132 56.033146,99.479790 
	C55.955627,97.845673 54.668472,96.252213 54.660057,94.636154 
	C54.651352,92.964653 54.982670,90.480270 56.089355,89.747917 
	C62.469921,85.525566 67.503525,80.298706 71.258301,73.563545 
	C73.423813,69.679146 77.596672,70.233429 80.063271,74.177383 
	C80.590942,75.021088 81.203697,75.811577 81.984741,76.927368 
M88.868622,95.618835 
	C87.324532,92.142860 85.927696,88.588058 84.137398,85.243889 
	C83.663574,84.358810 81.978020,84.122421 80.848862,83.588173 
	C77.650948,91.127541 74.453033,98.666908 71.255119,106.206276 
	C74.582367,111.223351 77.909622,116.240425 81.854370,122.188614 
	C84.344315,118.673058 85.745537,116.015663 87.766762,113.971237 
	C93.302017,108.372444 93.332108,102.573502 88.868622,95.618835 
z"/>
<path fill="#1EBA8C" opacity="1.000000" stroke="none" 
	d="
M121.223602,73.096992 
	C113.549522,82.469673 103.804077,85.263748 94.014534,81.144386 
	C84.445755,77.117905 79.450012,68.002251 80.536247,56.917725 
	C80.781815,54.411793 79.389847,50.753273 80.616600,49.587055 
	C82.145546,48.133560 85.649406,48.914806 88.225624,48.374237 
	C94.363503,47.086315 99.154160,43.641354 102.701805,38.520496 
	C104.481331,35.951839 106.045929,34.042179 108.343346,38.082973 
	C108.770203,38.833752 109.920738,39.225956 110.798576,39.659542 
	C124.755493,46.553173 128.881012,59.391930 121.223602,73.096992 
M110.586113,54.015591 
	C109.640434,49.279221 106.897209,46.539379 101.927269,46.968216 
	C97.242538,47.372440 95.067970,50.278931 94.643585,54.934475 
	C94.526985,56.213650 93.277100,57.626831 92.180138,58.535175 
	C88.785248,61.346313 87.674744,65.591599 89.673508,69.160934 
	C91.716644,72.809517 95.803452,73.991997 100.041367,72.512199 
	C101.498573,72.003380 103.410385,71.831047 104.820724,72.332054 
	C109.292084,73.920433 113.141960,73.070236 115.370461,69.545837 
	C117.730347,65.813667 116.764122,61.730011 113.053398,58.523876 
	C111.980560,57.596916 111.435844,56.058716 110.586113,54.015591 
z"/>
<path fill="#E37328" opacity="1.000000" stroke="none" 
	d="
M70.537552,9.454393 
	C78.467606,3.953251 86.371666,3.470196 94.124687,8.671495 
	C100.942192,13.245185 103.824944,20.002283 102.677780,28.115828 
	C101.505569,36.406479 95.408035,42.800697 87.307022,44.596992 
	C83.432877,45.456036 79.487656,46.065582 75.542099,46.473457 
	C74.720718,46.558365 73.529121,45.423038 72.894180,44.564545 
	C68.975632,39.266361 65.137840,33.907440 61.338501,28.522642 
	C59.948151,26.552107 58.610989,24.585161 61.920383,22.844969 
	C62.866501,22.347471 63.132084,20.638559 63.823032,19.557560 
	C65.938210,16.248318 68.108459,12.974281 70.537552,9.454393 
M78.012749,27.482769 
	C77.980408,27.727718 77.948074,27.972668 77.170990,27.987936 
	C76.190300,28.561178 75.209618,29.134420 74.228928,29.707659 
	C75.417671,31.572392 76.542786,33.481983 77.815765,35.287315 
	C78.790695,36.669952 79.928360,37.941799 81.040840,39.221897 
	C81.623680,39.892548 82.311005,40.966000 82.945801,40.962208 
	C83.610794,40.958237 84.369476,39.958508 84.907791,39.256432 
	C85.760231,38.144688 86.195068,36.438980 87.280525,35.831711 
	C90.364769,34.106216 92.358192,31.879345 91.521400,28.258059 
	C90.647606,24.476587 87.854843,23.137236 84.086426,22.946840 
	C82.160049,22.849510 80.269295,21.852829 78.416443,21.125145 
	C78.332596,21.092216 78.663109,19.105013 79.003853,19.036339 
	C81.197227,18.594261 83.458755,18.199398 85.672447,18.308002 
	C86.439751,18.345646 87.042564,19.973394 87.889984,20.668148 
	C88.641144,21.283989 89.627373,21.613119 90.509827,22.068817 
	C90.846245,21.075869 91.699089,19.883667 91.409210,19.132360 
	C90.844063,17.667593 89.902924,16.039896 88.637482,15.225574 
	C86.744110,14.007166 84.330025,13.590837 84.759621,10.466528 
	C84.816391,10.053660 83.568123,8.981683 83.132660,9.085882 
	C82.352119,9.272655 81.565132,10.009108 81.080467,10.720084 
	C80.359451,11.777776 80.209450,13.524566 79.277496,14.090357 
	C72.822609,18.009130 72.408714,21.736563 78.012749,27.482769 
z"/>
<path fill="#110E07" opacity="1.000000" stroke="none" 
	d="
M26.096222,63.953228 
	C26.096230,57.295269 26.295877,51.121544 26.027735,44.968204 
	C25.841543,40.695457 26.631889,37.928833 32.038578,39.093002 
	C32.276203,37.990807 32.277302,36.983681 32.713623,36.227772 
	C33.205463,35.375664 34.089138,34.749725 34.802383,34.025414 
	C35.403446,34.719299 36.024204,35.397259 36.600998,36.110764 
	C37.484165,37.203270 38.337032,38.320274 39.202759,39.426880 
	C39.650581,39.157455 40.098400,38.888031 40.546223,38.618607 
	C40.627731,37.825436 40.488667,36.909504 40.844982,36.269276 
	C41.321049,35.413879 42.181530,34.772427 42.876923,34.039097 
	C43.497753,34.712910 44.171135,35.346199 44.728542,36.068928 
	C45.910686,37.601662 46.748569,39.557800 48.229839,40.673599 
	C53.594280,44.714493 54.031586,50.262123 49.228352,57.265755 
	C54.716217,64.831436 53.983223,69.357903 46.485249,74.721230 
	C45.787930,75.220032 45.311882,76.080643 44.849682,76.843857 
	C44.082180,78.111198 43.409332,79.435867 42.696625,80.736397 
	C42.038101,79.583092 41.464226,78.368607 40.690735,77.298393 
	C40.190769,76.606636 39.471920,75.852211 38.711185,75.648445 
	C38.214954,75.515526 37.295300,76.185036 36.867714,76.731644 
	C35.892128,77.978783 35.102501,79.371384 34.237320,80.704880 
	C33.440655,79.195992 32.643990,77.687111 31.746187,75.986664 
	C26.096237,74.847519 26.096237,74.847519 26.096222,63.953228 
M37.455605,55.155003 
	C39.113564,55.143616 40.771950,55.152138 42.429401,55.116821 
	C46.208729,55.036285 48.500111,52.913013 48.606720,49.340649 
	C48.721912,45.480740 46.309296,43.210327 42.384373,43.067303 
	C38.455212,42.924114 34.516769,43.035851 30.413774,43.035851 
	C30.413774,47.241657 30.413774,50.960621 30.413774,55.155018 
	C32.606388,55.155018 34.558010,55.155018 37.455605,55.155003 
M39.352962,71.404739 
	C40.181004,71.399277 41.009155,71.400620 41.837067,71.387207 
	C45.956390,71.320435 48.703739,69.315392 48.574921,65.144020 
	C48.446247,60.977505 45.472469,59.192696 41.461693,59.158234 
	C37.860561,59.127293 34.258953,59.151714 30.412659,59.151714 
	C30.412659,63.364967 30.412659,67.082489 30.412659,71.405479 
	C33.213142,71.405479 35.808750,71.405479 39.352962,71.404739 
z"/>
<path fill="#070B0E" opacity="1.000000" stroke="none" 
	d="
M88.988594,95.980797 
	C93.332108,102.573502 93.302017,108.372444 87.766762,113.971237 
	C85.745537,116.015663 84.344315,118.673058 81.854370,122.188614 
	C77.909622,116.240425 74.582367,111.223351 71.255119,106.206276 
	C74.453033,98.666908 77.650948,91.127541 80.848862,83.588173 
	C81.978020,84.122421 83.663574,84.358810 84.137398,85.243889 
	C85.927696,88.588058 87.324532,92.142860 88.988594,95.980797 
M76.147224,103.567795 
	C79.830757,107.272217 83.709854,106.380928 88.062683,104.005043 
	C86.145782,99.620476 84.278656,95.349739 81.986618,90.107101 
	C79.790535,95.062012 78.069084,98.946030 76.147224,103.567795 
z"/>
<path fill="#020A07" opacity="1.000000" stroke="none" 
	d="
M110.617569,54.408161 
	C111.435844,56.058716 111.980560,57.596916 113.053398,58.523876 
	C116.764122,61.730011 117.730347,65.813667 115.370461,69.545837 
	C113.141960,73.070236 109.292084,73.920433 104.820724,72.332054 
	C103.410385,71.831047 101.498573,72.003380 100.041367,72.512199 
	C95.803452,73.991997 91.716644,72.809517 89.673508,69.160934 
	C87.674744,65.591599 88.785248,61.346313 92.180138,58.535175 
	C93.277100,57.626831 94.526985,56.213650 94.643585,54.934475 
	C95.067970,50.278931 97.242538,47.372440 101.927269,46.968216 
	C106.897209,46.539379 109.640434,49.279221 110.617569,54.408161 
M109.221886,69.074959 
	C110.307892,67.514374 111.999680,66.036171 112.227776,64.358910 
	C112.344177,63.502892 109.913078,61.626144 108.485901,61.457207 
	C107.427673,61.331940 104.972855,63.612537 105.151031,64.132942 
	C105.774399,65.953659 107.269722,67.475830 109.221886,69.074959 
M96.408531,69.140480 
	C97.784203,67.811035 99.718208,66.680878 100.294586,65.066124 
	C100.573196,64.285606 98.500656,61.961029 97.117332,61.524284 
	C96.086884,61.198940 93.228546,62.970177 93.306969,63.483261 
	C93.601334,65.409340 94.766556,67.202332 96.408531,69.140480 
M105.298294,51.899696 
	C102.485435,50.144913 100.027390,50.480579 99.053917,53.784927 
	C98.703819,54.973289 99.638420,57.077599 100.672440,57.963734 
	C101.478653,58.654640 104.261337,58.593517 104.567802,58.017071 
	C105.430679,56.394062 105.469154,54.332756 105.298294,51.899696 
z"/>
<path fill="#0A0502" opacity="1.000000" stroke="none" 
	d="
M78.106628,26.747519 
	C72.408714,21.736563 72.822609,18.009130 79.277496,14.090357 
	C80.209450,13.524566 80.359451,11.777776 81.080467,10.720084 
	C81.565132,10.009108 82.352119,9.272655 83.132660,9.085882 
	C83.568123,8.981683 84.816391,10.053660 84.759621,10.466528 
	C84.330025,13.590837 86.744110,14.007166 88.637482,15.225574 
	C89.902924,16.039896 90.844063,17.667593 91.409210,19.132360 
	C91.699089,19.883667 90.846245,21.075869 90.509827,22.068817 
	C89.627373,21.613119 88.641144,21.283989 87.889984,20.668148 
	C87.042564,19.973394 86.439751,18.345646 85.672447,18.308002 
	C83.458755,18.199398 81.197227,18.594261 79.003853,19.036339 
	C78.663109,19.105013 78.332596,21.092216 78.416443,21.125145 
	C80.269295,21.852829 82.160049,22.849510 84.086426,22.946840 
	C87.854843,23.137236 90.647606,24.476587 91.521400,28.258059 
	C92.358192,31.879345 90.364769,34.106216 87.280525,35.831711 
	C86.195068,36.438980 85.760231,38.144688 84.907791,39.256432 
	C84.369476,39.958508 83.610794,40.958237 82.945801,40.962208 
	C82.311005,40.966000 81.623680,39.892548 81.040840,39.221897 
	C79.928360,37.941799 78.790695,36.669952 77.815765,35.287315 
	C76.542786,33.481983 75.417671,31.572392 74.228928,29.707661 
	C75.209618,29.134420 76.190300,28.561178 77.584106,28.486042 
	C78.903252,33.516983 82.493866,31.901239 85.167534,31.873497 
	C86.021492,31.864632 86.859612,30.328609 87.704979,29.491343 
	C86.809189,28.680838 86.012840,27.362530 84.997269,27.163641 
	C82.759064,26.725315 80.410286,26.851624 78.106628,26.747519 
z"/>
<path fill="#D86D26" opacity="1.000000" stroke="none" 
	d="
M78.059692,27.115143 
	C80.410286,26.851624 82.759064,26.725315 84.997269,27.163641 
	C86.012840,27.362530 86.809189,28.680838 87.704979,29.491343 
	C86.859612,30.328609 86.021492,31.864632 85.167534,31.873497 
	C82.493866,31.901239 78.903252,33.516983 77.956482,28.600883 
	C77.948074,27.972668 77.980408,27.727718 78.059692,27.115143 
z"/>
<path fill="#F3CD68" opacity="1.000000" stroke="none" 
	d="
M36.982616,55.155010 
	C34.558010,55.155018 32.606388,55.155018 30.413774,55.155018 
	C30.413774,50.960621 30.413774,47.241657 30.413774,43.035851 
	C34.516769,43.035851 38.455212,42.924114 42.384373,43.067303 
	C46.309296,43.210327 48.721912,45.480740 48.606720,49.340649 
	C48.500111,52.913013 46.208729,55.036285 42.429401,55.116821 
	C40.771950,55.152138 39.113564,55.143616 36.982616,55.155010 
z"/>
<path fill="#F1CC67" opacity="1.000000" stroke="none" 
	d="
M38.878662,71.405106 
	C35.808750,71.405479 33.213142,71.405479 30.412659,71.405479 
	C30.412659,67.082489 30.412659,63.364967 30.412659,59.151714 
	C34.258953,59.151714 37.860561,59.127293 41.461693,59.158234 
	C45.472469,59.192696 48.446247,60.977505 48.574921,65.144020 
	C48.703739,69.315392 45.956390,71.320435 41.837067,71.387207 
	C41.009155,71.400620 40.181004,71.399277 38.878662,71.405106 
z"/>
<path fill="#75BEE4" opacity="1.000000" stroke="none" 
	d="
M76.247429,103.198921 
	C78.069084,98.946030 79.790535,95.062012 81.986618,90.107101 
	C84.278656,95.349739 86.145782,99.620476 88.062683,104.005043 
	C83.709854,106.380928 79.830757,107.272217 76.247429,103.198921 
z"/>
<path fill="#1DB387" opacity="1.000000" stroke="none" 
	d="
M108.827850,69.093185 
	C107.269722,67.475830 105.774399,65.953659 105.151031,64.132942 
	C104.972855,63.612537 107.427673,61.331940 108.485901,61.457207 
	C109.913078,61.626144 112.344177,63.502892 112.227776,64.358910 
	C111.999680,66.036171 110.307892,67.514374 108.827850,69.093185 
z"/>
<path fill="#1DB387" opacity="1.000000" stroke="none" 
	d="
M96.006989,69.092834 
	C94.766556,67.202332 93.601334,65.409340 93.306969,63.483261 
	C93.228546,62.970177 96.086884,61.198940 97.117332,61.524284 
	C98.500656,61.961029 100.573196,64.285606 100.294586,65.066124 
	C99.718208,66.680878 97.784203,67.811035 96.006989,69.092834 
z"/>
<path fill="#1DB488" opacity="1.000000" stroke="none" 
	d="
M105.565460,52.171970 
	C105.469154,54.332756 105.430679,56.394062 104.567802,58.017071 
	C104.261337,58.593517 101.478653,58.654640 100.672440,57.963734 
	C99.638420,57.077599 98.703819,54.973289 99.053917,53.784927 
	C100.027390,50.480579 102.485435,50.144913 105.565460,52.171970 
z"/>
</svg>